<?xml version="1.0" encoding="utf-8"?>
<svg version="1.1" width="1000" height="625" viewBox="227.941 0 544.118 625" xmlns="http://www.w3.org/2000/svg">
  <g transform="matrix(1.000919, 0, 0, 1, 0, 0)" style="">
    <svg viewBox="0 0 576 360" data-background-color="#ffffff" preserveAspectRatio="xMidYMid meet" height="625" width="1000" xmlns="http://www.w3.org/2000/svg">
      <g id="tight-bounds" transform="matrix(1,0,0,1,0,0)">
        <svg viewBox="0 0 576 360" height="360" width="576">
          <g>
            <svg/>
          </g>
          <g>
            <svg viewBox="0 0 576 360" height="360" width="576" transform="matrix(0.9999999999999999, 0, 0, 0.9838237762451171, -215.27273613635165, -8.265055836621698)" style="">
              <g>
                <path xmlns="http://www.w3.org/2000/svg" d="M132.115 90l155.885-90 155.885 90v180l-155.885 90-155.885-90z" fill="#5dc3df" fill-rule="nonzero" stroke="none" stroke-width="1" stroke-linecap="butt" stroke-linejoin="miter" stroke-miterlimit="10" stroke-dasharray="" stroke-dashoffset="0" font-family="none" font-weight="none" font-size="none" text-anchor="none" style="mix-blend-mode: normal" data-fill-palette-color="tertiary"/>
              </g>
              <g transform="matrix(1,0,0,1,172.8,118.29743589743589)">
                <svg viewBox="0 0 230.4 123.40512820512821" height="123.40512820512821" width="230.4">
                  <g>
                    <svg viewBox="0 0 230.4 123.40512820512821" height="123.40512820512821" width="230.4">
                      <g>
                        <svg viewBox="0 0 230.4 123.40512820512821" height="123.40512820512821" width="230.4">
                          <g>
                            <svg viewBox="0 0 230.4 123.40512820512821" height="123.40512820512821" width="230.4">
                              <g>
                                <svg viewBox="0 0 230.4 123.40512820512821" height="123.40512820512821" width="230.4">
                                  <g>
                                    <svg viewBox="0 0 230.4 123.40512820512821" height="123.40512820512821" width="230.4">
                                      <g transform="matrix(1,0,0,1,0,0)">
                                        <svg width="230.4" viewBox="2.5 -37.20000076293945 70.19999694824219 37.60000228881836" height="123.40512820512821" data-palette-color="#102e44">
                                          <path d="M34.6-19.25L34.6-3.7Q33.95-3 32.55-2.27 31.15-1.55 29.33-0.95 27.5-0.35 25.6 0.03 23.7 0.4 22 0.4L22 0.4Q17.5 0.4 13.9-0.93 10.3-2.25 7.75-4.63 5.2-7 3.85-10.25 2.5-13.5 2.5-17.35L2.5-17.35Q2.5-22.4 4.03-26.13 5.55-29.85 8.18-32.33 10.8-34.8 14.23-36 17.65-37.2 21.4-37.2L21.4-37.2Q24.95-37.2 27.9-36.43 30.85-35.65 32.9-34.5L32.9-34.5 30.55-27.75Q29.65-28.25 28.15-28.75 26.65-29.25 25.1-29.58 23.55-29.9 22.35-29.9L22.35-29.9Q19.35-29.9 17.05-29.15 14.75-28.4 13.18-26.9 11.6-25.4 10.8-23.18 10-20.95 10-18L10-18Q10-15.4 10.9-13.33 11.8-11.25 13.43-9.8 15.05-8.35 17.28-7.6 19.5-6.85 22.2-6.85L22.2-6.85Q23.75-6.85 25.05-7.08 26.35-7.3 27.25-7.8L27.25-7.8 27.25-12.25 20.9-12.25 20.9-19.25 34.6-19.25ZM72.7-19.25L72.7-3.7Q72.05-3 70.65-2.27 69.25-1.55 67.42-0.95 65.6-0.35 63.7 0.03 61.8 0.4 60.1 0.4L60.1 0.4Q55.6 0.4 52-0.93 48.4-2.25 45.85-4.63 43.3-7 41.95-10.25 40.6-13.5 40.6-17.35L40.6-17.35Q40.6-22.4 42.12-26.13 43.65-29.85 46.27-32.33 48.9-34.8 52.32-36 55.75-37.2 59.5-37.2L59.5-37.2Q63.05-37.2 66-36.43 68.95-35.65 71-34.5L71-34.5 68.65-27.75Q67.75-28.25 66.25-28.75 64.75-29.25 63.2-29.58 61.65-29.9 60.45-29.9L60.45-29.9Q57.45-29.9 55.15-29.15 52.85-28.4 51.27-26.9 49.7-25.4 48.9-23.18 48.1-20.95 48.1-18L48.1-18Q48.1-15.4 49-13.33 49.9-11.25 51.52-9.8 53.15-8.35 55.37-7.6 57.6-6.85 60.3-6.85L60.3-6.85Q61.85-6.85 63.15-7.08 64.45-7.3 65.35-7.8L65.35-7.8 65.35-12.25 59-12.25 59-19.25 72.7-19.25Z" opacity="1" transform="matrix(1,0,0,1,0,0)" fill="#102e44" class="undefined-text-0" data-fill-palette-color="quaternary" id="text-0"/>
                                        </svg>
                                      </g>
                                    </svg>
                                  </g>
                                </svg>
                              </g>
                            </svg>
                          </g>
                          <g/>
                        </svg>
                      </g>
                    </svg>
                  </g>
                </svg>
              </g>
            </svg>
          </g>
        </svg>
        <rect width="576" height="360" fill="none" stroke="none" visibility="hidden"/>
      </g>
    </svg>
  </g>
</svg>